<?xml version="1.0" encoding="UTF-8" standalone="no"?>
<!DOCTYPE svg PUBLIC "-//W3C//DTD SVG 1.1//EN" "http://www.w3.org/Graphics/SVG/1.1/DTD/svg11.dtd">
<svg xmlns="http://www.w3.org/2000/svg" version="1.1" viewBox="0.00 0.00 255.00 255.00">
<path fill="#00a0e8" d="
  M 174.64 202.42
  C 173.90 136.62 121.59 83.94 55.57 83.33
  Q 55.00 83.32 55.00 82.76
  L 55.00 54.80
  Q 55.00 54.37 55.43 54.37
  C 137.74 54.70 202.70 120.80 203.59 202.60
  Q 203.60 203.00 203.20 203.00
  L 175.23 203.00
  Q 174.65 203.00 174.64 202.42
  Z"
/>
<path fill="#00a0e8" d="
  M 92.64 145.76
  C 81.27 138.24 68.93 134.43 55.45 134.42
  A 0.45 0.44 0.0 0 1 55.00 133.98
  L 55.00 106.02
  Q 55.00 105.55 55.48 105.54
  C 109.17 104.86 152.17 149.96 152.51 202.46
  Q 152.51 203.00 151.98 203.00
  L 124.29 203.00
  Q 123.85 203.00 123.83 202.56
  Q 121.88 165.10 92.64 145.76
  Z"
/>
<circle fill="#00a0e8" cx="73.50" cy="183.50" r="20.47"/>
</svg>
