<?xml version="1.0" encoding="UTF-8"?><svg id="_レイヤー_1" xmlns="http://www.w3.org/2000/svg" viewBox="0 0 1000 1000"><defs><style>.cls-1{fill:none;}.cls-1,.cls-2{stroke-width:0px;}</style></defs><path class="cls-2" d="m900.83,333h-144.83c-29.82,0-54-24.18-54-54V119.95c88.5,45.71,159.17,121.12,198.83,213.05Z"/><path class="cls-2" d="m648,96.59v182.41c0,29.82-24.18,54-54,54H107.17C173.41,179.46,326.15,72,504,72c50.49,0,98.96,8.66,144,24.59Z"/><path class="cls-2" d="m935.16,477h-233.16v-36c0-29.82,24.18-54,54-54h163.96c8.12,28.89,13.29,59,15.2,90Z"/><path class="cls-2" d="m935.16,531c-9.6,155.74-101.71,289.16-233.16,357.05-11.72,6.06-23.76,11.6-36.08,16.58-50,20.23-104.66,31.37-161.92,31.37-229.52,0-417.24-178.99-431.16-405h234.98c13.18,96.58,95.99,171,196.18,171,66.91,0,126.07-33.19,161.92-84.01,17.82-25.28,29.88-54.91,34.25-86.99h234.99Z"/><path class="cls-1" d="m307.82,531c13.18,96.58,95.99,171,196.18,171,66.91,0,126.07-33.19,161.92-84.01,17.82-25.28,29.88-54.91,34.25-86.99"/><path class="cls-2" d="m648,441v36H72.84c1.91-31,7.08-61.11,15.2-90h505.96c29.82,0,54,24.18,54,54Z"/></svg>