<?xml version="1.0" standalone="no"?>
<!DOCTYPE svg PUBLIC "-//W3C//DTD SVG 20010904//EN"
 "http://www.w3.org/TR/2001/REC-SVG-20010904/DTD/svg10.dtd">
<svg version="1.0" xmlns="http://www.w3.org/2000/svg"
 width="700.000000pt" height="700.000000pt" viewBox="0 0 700.000000 700.000000"
 preserveAspectRatio="xMidYMid meet">
<metadata>
Created by potrace 1.14, written by Peter Selinger 2001-2017
</metadata>
<g transform="translate(0.000000,700.000000) scale(0.100000,-0.100000)"
fill="#000000" stroke="none">
<path d="M3320 6489 c-52 -4 -117 -10 -145 -13 -27 -4 -66 -9 -85 -12 -19 -2
-46 -6 -60 -9 -14 -2 -41 -7 -60 -10 -70 -11 -282 -66 -387 -101 -503 -164
-981 -480 -1323 -874 -36 -41 -68 -77 -71 -80 -14 -13 -132 -174 -186 -255
-85 -129 -162 -266 -219 -390 l-34 -75 1748 2 1747 3 55 22 c98 40 175 122
215 228 18 47 19 86 20 724 l0 674 -40 14 c-106 39 -359 102 -470 118 -22 4
-53 9 -70 12 -16 2 -46 6 -65 7 -19 2 -64 6 -100 10 -87 10 -352 13 -470 5z"/>
<path d="M4916 5572 c1 -323 5 -600 8 -617 22 -96 111 -202 211 -251 l60 -29
553 -3 554 -3 -7 23 c-4 13 -41 88 -82 168 -146 281 -313 510 -538 736 -153
153 -170 169 -295 265 -142 110 -310 219 -426 277 l-40 20 2 -586z"/>
<path d="M595 4213 c-10 -43 -18 -79 -17 -80 0 -2 -6 -29 -13 -60 -19 -85 -40
-229 -50 -345 l-6 -67 2014 0 2013 -1 -1 163 c-1 132 -5 171 -20 212 -42 112
-121 192 -231 231 l-65 24 -1803 0 -1802 0 -19 -77z"/>
<path d="M5193 4278 c-59 -13 -160 -83 -204 -142 -59 -78 -73 -137 -74 -318
l-2 -157 813 -1 c447 0 815 3 817 7 4 7 -1 68 -17 203 -3 25 -13 86 -21 135
-14 81 -25 130 -56 248 l-10 37 -602 -1 c-340 -1 -620 -5 -644 -11z"/>
<path d="M519 3280 c-14 -9 10 -247 38 -375 2 -11 6 -31 9 -45 42 -212 133
-481 233 -690 378 -788 1078 -1377 1914 -1610 43 -12 86 -23 95 -25 9 -1 35
-8 57 -13 66 -18 248 -48 365 -60 87 -9 506 -9 599 1 261 26 629 116 826 202
17 7 64 27 105 45 194 84 458 242 625 375 471 375 807 844 1000 1397 34 97 96
322 109 398 3 19 8 44 10 56 2 12 7 45 11 75 4 30 8 56 10 59 3 5 16 141 19
190 l1 24 -822 1 -822 0 -11 -62 c-30 -175 -111 -371 -217 -530 -64 -96 -210
-254 -282 -304 -25 -18 -48 -36 -51 -40 -10 -13 -118 -78 -196 -117 -133 -67
-308 -119 -459 -137 -102 -12 -303 -6 -388 11 -12 2 -35 7 -52 9 -78 14 -198
54 -300 100 -299 136 -571 417 -690 714 -15 36 -31 73 -35 82 -7 13 -51 188
-65 254 -4 20 -12 20 -816 20 -446 0 -815 -2 -820 -5z"/>
</g>
</svg>
